<svg width="147" height="129" viewBox="0 0 147 129" fill="none" xmlns="http://www.w3.org/2000/svg">
<path d="M45.5 53.1C38.9 53.1 35.7 58.9 35.7 66.1C35.7 73.8 39.5 78.6 45.4 78.6C49.5 78.6 52.9 75.8 53.7 71.8C53.9 70.9 54 69.7 54 68.6V62.6C54 61.8 53.9999 60.8 53.7999 60C52.9999 56.2 49.9 53.1 45.5 53.1V53.1ZM98.9 52.9C93.7 52.9 89.5 57.6 89.5 65.9C89.5 72.7 92.9 78.1 98.8 78.1C102.5 78.1 105.4 75.7 106.4 72.4C106.8 71.3 106.9 69.8 106.9 68.6V61.9C106.9 61.1 106.8 60.1 106.6 59.3C105.6 55.4 102.9 52.9 98.9 52.9V52.9ZM145.6 61.1L112.6 4.1C111.5 2.1 108.7 0.5 106.4 0.5H40.5C38.2 0.5 35.3999 2.1 34.2999 4.1L1.39995 61.1C0.299951 63.1 0.299951 66.3 1.39995 68.3L34.2999 125.4C35.3999 127.4 38.2 129 40.5 129H106.4C108.7 129 111.5 127.4 112.6 125.4L145.5 68.3C146.7 66.4 146.7 63.1 145.6 61.1V61.1ZM56 89L55.4 82.4H55.0999C52.2999 87.5 46.6999 90.1 40.7999 90.1C29.9 90.1 21.2 80.8 21.2 66.6C21.1 51.2 30.7 42.3 41.7 42.3C47.4 42.3 51.6999 44.4 53.7999 47.4H54V22.4H68.2V75.3C68.2 80.5 68.4 85.9 68.6 89H56V89ZM121.1 56.8V82.3C121.1 91.1 119.3 98.3 114.1 102.9C109.1 107.2 102.3 108.5 95.6 108.5C89.5 108.5 83.2 107.3 79.1 105L81.9 94.1C84.8 95.8 89.8 97.6 95.2 97.6C101.9 97.6 107.1 94 107.1 85.5V82.6H106.9C104.2 86.3 99.8 88.5 94.5 88.5C83.2 88.5 75.1 79.3 75.1 66.2C75.1 51.4 84.6 42 95.9 42C102.2 42 106.1 44.7 108.4 48.6H108.6L109.1 43.1H121.5C121.3 46.2 121.1 50 121.1 56.8Z" fill="white"/>
</svg>
