<svg xmlns="http://www.w3.org/2000/svg" viewBox="0 0 425.8 139.4">
<path fill="#ffffff" d="M169 45.6c0-1.2 0.6-1.9 1.8-1.9h24c1.2 0 1.9 0.7 1.9 1.9v0.9c0 1.2-0.7 1.9-1.9 1.9h-20.6v19.7h17.5c1.2 0 1.8 0.6 1.8 1.8v1c0 1.2-0.6 1.9-1.8 1.9h-17.5v21.7c0 1.2-0.7 1.9-1.8 1.9h-1.6c-1.2 0-1.8-0.7-1.8-1.9V45.6z"/>
<path fill="#ffffff" d="M206.2 45.6c0-1.2 0.6-1.9 1.8-1.9h1.6c1.1 0 1.8 0.7 1.8 1.9v46h22.5c1.2 0 1.9 0.7 1.9 1.9v0.9c0 1.2-0.7 1.9-1.9 1.9H208c-1.2 0-1.8-0.7-1.8-1.9V45.6z"/>
<path fill="#ffffff" d="M243.5 45.6c0-1.2 0.6-1.9 1.8-1.9h1.6c1.1 0 1.8 0.7 1.8 1.9v48.8c0 1.2-0.7 1.9-1.8 1.9h-1.6c-1.2 0-1.8-0.7-1.8-1.9V45.6z"/>
<path fill="#ffffff" d="M263.3 45.6c0-1.2 0.6-1.9 1.8-1.9h16.4c9.4 0 16.2 6.1 16.2 15.8 0 9.8-6.8 16.1-16.2 16.1h-13v18.7c0 1.2-0.7 1.9-1.8 1.9h-1.6c-1.2 0-1.8-0.7-1.8-1.9V45.6zM280.8 71c7 0 11.6-4.3 11.6-11.4 0-7.1-4.6-11.2-11.5-11.2h-12.4V71H280.8z"/>
<path fill="#ffffff" d="M306.1 46.4c0-2 1-3.1 3.1-3.1h14.3c5.2 0 7.8 0.4 10.1 1.4 5.4 2.2 8.9 7.3 8.9 14.5 0 6.3-3.3 12.2-8.8 14.5v0.1c0 0 0.7 0.8 1.7 2.8l8.7 16c1.3 2.2 0.3 3.7-2.2 3.7h-4c-1.7 0-2.8-0.7-3.7-2.2l-9.3-17.6h-9.3v16.7c0 2.1-1 3.1-3.1 3.1h-3.4c-2 0-3.1-1-3.1-3.1V46.4zM324.3 68.1c5.2 0 8.4-3.2 8.4-8.4 0-3.4-1.3-6.1-4.2-7.2 -1.3-0.6-2.9-0.9-5.7-0.9h-7.1v16.6H324.3z"/>
<path fill="#ffffff" d="M350.5 87.4l1.6-2.4c1.2-1.6 2.5-1.7 4.3-0.7 1.7 1.2 5.5 3.9 10.8 3.9 4.9 0 7.9-2.5 7.9-6 0-10.1-24.7-8-24.7-24.5 0-9.3 7.8-15.4 17.8-15.4 6.3 0 11.4 2.4 13.7 4 1.6 1.2 1.9 2.6 1 4.3l-1.3 2.5c-1.1 2.2-2.7 1.9-4.3 1 -2.2-1.3-5.1-2.9-9.2-2.9 -4.9 0-8.1 2.4-8.1 6 0 9.9 24.7 7.4 24.7 24.3 0 8.6-6.4 15.7-17.6 15.7 -7.5 0-13.7-3.4-16.3-5.4C349.8 90.7 349 89.5 350.5 87.4z"/>
<path fill="#ffffff" d="M391.5 87.4l1.6-2.4c1.2-1.6 2.5-1.7 4.3-0.7 1.7 1.2 5.5 3.9 10.8 3.9 4.9 0 7.9-2.5 7.9-6 0-10.1-24.7-8-24.7-24.5 0-9.3 7.8-15.4 17.8-15.4 6.3 0 11.4 2.4 13.7 4 1.6 1.2 1.9 2.6 1 4.3l-1.3 2.5c-1.1 2.2-2.7 1.9-4.3 1 -2.2-1.3-5.1-2.9-9.2-2.9 -4.9 0-8.1 2.4-8.1 6 0 9.9 24.7 7.4 24.7 24.3 0 8.6-6.4 15.7-17.6 15.7 -7.5 0-13.7-3.4-16.3-5.4C390.8 90.7 390 89.5 391.5 87.4z"/>
<path fill="#ffffff" d="M151.9 58.7c-0.9-3.9-25.8-29-34-29.2 -0.1 0-0.2 0-0.3 0 -4.9 0-10.8 3.6-14.7 6.5l0 0c-0.4-0.4-0.9-0.7-1.3-1.1 0 0-0.1-0.1-0.1-0.1 -1.3-1.1-2.8-2.1-4.2-3.1 0 0 0 0 0 0 -0.5-0.3-1-0.6-1.4-0.9 -0.1 0-0.1-0.1-0.2-0.1 -1.5-0.9-3.1-1.6-4.7-2.3 0 0 0 0 0 0 -0.6-4-1.2-8.1-1.8-12.1 -1.6-9-7.7-16.3-13.5-16.3 -5.8 0-11.9 7.3-13.5 16.3 -0.6 4.2-1.2 8.3-1.9 12.5 -0.5 0.2-1 0.4-1.5 0.7 -0.1 0-0.1 0.1-0.2 0.1 -1.4 0.7-2.8 1.5-4.1 2.3 -0.1 0-0.1 0.1-0.2 0.1 -1.3 0.9-2.6 1.8-3.8 2.8 0 0-0.1 0.1-0.1 0.1 -0.4 0.3-0.8 0.7-1.2 1 -3.9-2.9-9.8-6.5-14.7-6.5 -0.1 0-0.2 0-0.3 0C25.9 29.7 1 54.9 0.1 58.7c-0.9 3.9 5 7.8 8.6 8.7 0.1 0 0.2 0 0.4 0 3.4 0 17.6-6.4 26.5-10.6 -0.4 1.3-0.8 2.7-1.2 4.1 0 0.2-0.1 0.3-0.1 0.5 -0.2 0.7-0.3 1.4-0.5 2.2 0 0.3-0.1 0.5-0.1 0.8 -0.1 0.4-0.1 0.8-0.2 1.2 -0.1 0.6-0.2 1.1-0.2 1.7 0 0.3-0.1 0.7-0.1 1 -0.1 0.6-0.1 1.2-0.2 1.8 0 0.3 0 0.5-0.1 0.8 0 0.6-0.1 1.1-0.1 1.7 0 0.2 0 0.4 0 0.6 0 0.7 0 1.5 0 2.2 0 0.2 0 0.4 0 0.6 0 0.8 0.1 1.5 0.1 2.3 0 0.1 0 0.3 0 0.4 0.1 0.8 0.1 1.6 0.2 2.5 0.1 1.1 0.3 2.2 0.5 3.3 0 0.3 0.1 0.6 0.2 0.9 0.1 0.8 0.3 1.6 0.4 2.4 0.1 0.3 0.1 0.6 0.2 0.9 0.2 1 0.4 2 0.7 3 0 0 0 0.1 0 0.1 0.3 1.1 0.6 2.2 0.9 3.3 0 0.1 0 0.1 0.1 0.2 0.3 1 0.6 2 0.9 3 0 0.1 0.1 0.2 0.1 0.3 1.1 3.2 2.3 6.3 3.7 9.2l0 0c-2.1 2.5-7.1 8.7-9 13.3 -2.3 5.8 6.1 18.2 12.6 18.2 0.2 0 0.4 0 0.6 0 4.3-0.5 9.7-6.3 12.9-10.2 0.7 0.5 1.4 0.9 2.1 1.4 0 0 0 0 0 0 1 0.6 2 1.2 3.1 1.7 0.1 0.1 0.3 0.1 0.4 0.2 0.5 0.2 1 0.4 1.4 0.6 0.2 0.1 0.5 0.2 0.7 0.3 0.3 0.1 0.5 0.2 0.8 0.3 0.4 0.2 0.9 0.3 1.3 0.4 0.2 0.1 0.4 0.1 0.6 0.2 0.4 0.1 0.9 0.2 1.3 0.3 0.2 0 0.3 0.1 0.5 0.1 0.5 0.1 1 0.2 1.5 0.3 0.1 0 0.3 0 0.4 0.1 0.6 0.1 1.1 0.1 1.7 0.2 0.1 0 0.2 0 0.4 0 0.6 0 1.2 0.1 1.8 0.1h0 0c0 0 0 0 0 0h0 0c0.6 0 1.2 0 1.8-0.1 0.1 0 0.2 0 0.4 0 0.6 0 1.1-0.1 1.7-0.2 0.1 0 0.3 0 0.4-0.1 0.5-0.1 1-0.2 1.5-0.3 0.2 0 0.3-0.1 0.5-0.1 0.4-0.1 0.9-0.2 1.3-0.3 0.2-0.1 0.4-0.1 0.6-0.2 0.4-0.1 0.9-0.3 1.3-0.4 0.3-0.1 0.5-0.2 0.8-0.3 0.2-0.1 0.5-0.2 0.7-0.3 0.5-0.2 1-0.4 1.4-0.6 0.1-0.1 0.3-0.1 0.4-0.2 1.8-0.8 3.5-1.8 5.1-3 3.2 3.9 8.5 9.6 12.8 10.1 0.2 0 0.4 0 0.6 0 6.5 0 14.8-12.4 12.6-18.2 -1.8-4.7-6.8-10.8-8.9-13.3l0 0c1.4-2.9 2.6-6 3.7-9.2 0-0.1 0.1-0.2 0.1-0.3 0.3-1 0.6-2 0.9-3 0-0.1 0-0.2 0.1-0.3 0.3-1.1 0.6-2.2 0.9-3.3 0 0 0 0 0-0.1 0.2-1 0.5-2 0.7-3.1 0.1-0.3 0.1-0.6 0.2-0.9 0.2-0.8 0.3-1.6 0.4-2.4 0.1-0.3 0.1-0.6 0.2-0.9 0.2-1.1 0.3-2.2 0.5-3.3 0.1-0.8 0.2-1.6 0.2-2.5 0-0.1 0-0.3 0-0.4 0.1-0.8 0.1-1.5 0.1-2.3 0-0.2 0-0.4 0-0.6 0-0.7 0-1.5 0-2.2 0-0.2 0-0.4 0-0.6 0-0.6 0-1.1-0.1-1.7 0-0.3 0-0.5 0-0.8 0-0.6-0.1-1.2-0.2-1.8 0-0.3-0.1-0.7-0.1-1 -0.1-0.5-0.1-1.1-0.2-1.6 -0.1-0.4-0.1-0.8-0.2-1.3 0-0.2-0.1-0.5-0.1-0.7 -0.1-0.7-0.3-1.5-0.5-2.2 0-0.2-0.1-0.3-0.1-0.5 -0.3-1.4-0.7-2.8-1.2-4.1v0c9 4.2 23.2 10.6 26.5 10.6 0.2 0 0.3 0 0.4 0C146.9 66.6 152.8 62.6 151.9 58.7zM111.8 57.1l0.4 1.2c1.8 5.3 2.6 10.9 2.6 16.6 0 0 0 0 0 0 0 0.9 0 1.7-0.1 2.6 0 0.1 0 0.2 0 0.3 -0.1 0.9-0.1 1.9-0.3 2.8 -0.1 1-0.3 2.1-0.4 3.1 0 0.2-0.1 0.5-0.1 0.7 -0.1 0.9-0.3 1.8-0.5 2.6 0 0.1-0.1 0.3-0.1 0.4 -1.3 6.6-3.4 12.8-6.1 18.5l-0.6 1.2c-1.7 3.5-3.7 6.7-5.9 9.5 -2.6 3.4-5.3 6.1-7.9 8.1l-1.2 0.9c-3.7 2.6-7.6 4.2-11.5 4.9 0 0 0 0-0.1 0 -0.6 0.1-1.3 0.2-1.9 0.2 0 0-0.1 0-0.1 0 -0.7 0.1-1.3 0.1-2 0.1l0 0c-0.7 0-1.3 0-2-0.1 0 0-0.1 0-0.1 0 -0.6-0.1-1.3-0.1-1.9-0.2 0 0 0 0-0.1 0 -4-0.7-7.8-2.3-11.6-4.9l-1.3-0.9c-2.6-2-5.3-4.6-7.9-8 -2.2-2.9-4.2-6.1-5.9-9.6l-0.6-1.2c-2.7-5.6-4.7-11.9-6.1-18.4 0-0.1-0.1-0.3-0.1-0.4 -0.2-0.9-0.3-1.8-0.5-2.6 0-0.2-0.1-0.5-0.1-0.7 -0.2-1-0.3-2.1-0.4-3.1 -0.1-0.9-0.2-1.9-0.3-2.8 0-0.1 0-0.2 0-0.3 -0.1-0.9-0.1-1.7-0.1-2.6 0 0 0 0 0-0.1 -0.1-5.7 0.8-11.3 2.6-16.6l0.4-1.2c1.9-5.3 4.8-10.2 8.4-14.4 0.9-1 1.8-1.9 2.7-2.8l0.7-0.6 0 0c1.1-1 2.2-1.9 3.3-2.7 0.1-0.1 0.2-0.1 0.2-0.2 0.3-0.2 0.6-0.4 1-0.6 0.2-0.1 0.3-0.2 0.5-0.3 0.3-0.2 0.6-0.4 0.9-0.5 0.2-0.1 0.5-0.3 0.7-0.4 0.4-0.2 0.8-0.4 1.2-0.7 0.3-0.2 0.6-0.3 0.9-0.5 0.2-0.1 0.5-0.2 0.7-0.3C66 31 70.9 29.9 76 29.8c4.6 0.1 9 1 13.1 2.7l0.1 0.1c0.5 0.2 1 0.4 1.5 0.7 0.2 0.1 0.5 0.2 0.7 0.4 0.3 0.1 0.6 0.3 0.8 0.4 0.3 0.1 0.6 0.3 0.8 0.4 0.2 0.1 0.4 0.3 0.7 0.4 0.3 0.2 0.6 0.4 0.9 0.5 0.2 0.1 0.3 0.2 0.5 0.3 1.7 1.1 3.3 2.3 4.8 3.7l0.7 0.6c0.9 0.9 1.9 1.8 2.7 2.8C107.1 46.9 109.9 51.8 111.8 57.1zM66.4 17.1c1.3-7.1 6-12.6 9.2-12.6h0c1.5 0 3.3 1.2 5 3.2 2 2.5 3.6 5.9 4.2 9.4l1 6.7 0.5 3.1C83 26 79.6 25.5 76 25.4c-3.9 0-7.6 0.6-11.1 1.7L66.4 17.1zM33.8 53c-18.1 8.4-23.2 9.9-24.4 10.1 -2.1-0.7-4.3-2.4-4.8-3.4 1.3-2 6.3-7.7 13.5-14.4 10.1-9.2 15.2-11.4 16.2-11.5 0.1 0 0.1 0 0.2 0 2.7 0 6.9 1.9 11.6 5.3 -3.2 3.5-5.9 7.5-8 11.9L33.8 53zM44.5 135C44.4 135 44.4 135 44.5 135c-1.1 0-3.7-1.5-6-5 -2.4-3.5-2.9-6.5-2.6-7.3 1-2.6 3.6-6.5 7.1-10.7 3.2 5.7 7.1 10.6 11.5 14.4C49.2 132.9 45.7 134.9 44.5 135zM116 122.8c0.3 0.8-0.1 3.7-2.5 7.3 -2.4 3.4-4.9 5-5.9 5 0 0-0.1 0-0.1 0 -1.2-0.2-4.7-2.1-9.9-8.5 4.4-3.8 8.2-8.7 11.5-14.4C112.4 116.3 115 120.2 116 122.8zM142.7 63.1c-1.2-0.2-6.4-1.7-24.5-10.1l-4.2-2c-2.1-4.4-4.8-8.4-7.9-11.9 4.7-3.4 8.8-5.3 11.6-5.3 0.1 0 0.1 0 0.2 0 1.1 0.1 6.1 2.2 16.2 11.5 7.3 6.6 12.2 12.4 13.5 14.4C147 60.7 144.8 62.4 142.7 63.1z"/>
</svg>
