<svg viewBox="0 0 58 58" fill="none" xmlns="http://www.w3.org/2000/svg">
<path fill-rule="evenodd" clip-rule="evenodd" d="M0.871948 4.36808C0 6.07937 0 8.31958 0 12.8V25L58 25V12.8C58 8.31958 58 6.07937 57.1281 4.36808C56.3611 2.86278 55.1372 1.63893 53.6319 0.871948C51.9206 0 49.6804 0 45.2 0H12.8C8.31958 0 6.07937 0 4.36808 0.871948C2.86278 1.63893 1.63893 2.86278 0.871948 4.36808ZM58 34L0 34V45.2C0 49.6804 0 51.9206 0.871948 53.6319C1.63893 55.1372 2.86278 56.3611 4.36808 57.1281C6.07937 58 8.31958 58 12.8 58H45.2C49.6804 58 51.9206 58 53.6319 57.1281C55.1372 56.3611 56.3611 55.1372 57.1281 53.6319C58 51.9206 58 49.6804 58 45.2V34ZM34 9C34 6.23858 36.2386 4 39 4H46C48.7614 4 51 6.23858 51 9V16C51 18.7614 48.7614 21 46 21H39C36.2386 21 34 18.7614 34 16V9ZM12 4C9.23858 4 7 6.23858 7 9V16C7 18.7614 9.23858 21 12 21H19C21.7614 21 24 18.7614 24 16V9C24 6.23858 21.7614 4 19 4H12Z" fill="currentColor"/>
</svg>
