<svg width="58" height="58" viewBox="0 0 58 58" fill="none" xmlns="http://www.w3.org/2000/svg">
<path fill-rule="evenodd" clip-rule="evenodd" d="M.872 4.368C0 6.08 0 8.32 0 12.8V28h58V12.8c0-4.48 0-6.72-.872-8.432A8 8 0 0053.632.872C51.92 0 49.68 0 45.2 0H12.8C8.32 0 6.08 0 4.368.872A8 8 0 00.872 4.368zM58 37H0v8.2c0 4.48 0 6.72.872 8.432a8 8 0 003.496 3.496C6.08 58 8.32 58 12.8 58h32.4c4.48 0 6.72 0 8.432-.872a8 8 0 003.496-3.496C58 51.92 58 49.68 58 45.2V37zM37 13.5a7.5 7.5 0 0115 0v3.75c0 .697 0 1.046-.058 1.335a3 3 0 01-2.357 2.357c-.29.058-.638.058-1.335.058h-7.5c-.697 0-1.045 0-1.335-.058a3 3 0 01-2.357-2.357C37 18.295 37 17.947 37 17.25V13.5zM14.5 6A7.5 7.5 0 007 13.5v3.75c0 .697 0 1.046.058 1.335a3 3 0 002.357 2.357c.29.058.638.058 1.335.058h7.5c.697 0 1.046 0 1.335-.058a3 3 0 002.357-2.357c.058-.29.058-.638.058-1.335V13.5A7.5 7.5 0 0014.5 6z" fill="#DF0A0A"/>
</svg>
