<svg width="194" height="54" viewBox="0 0 194 54" fill="none" xmlns="http://www.w3.org/2000/svg">
<path d="M61.8135 35.4453C67.0273 35.4453 70.1445 32.3652 70.1445 27.0586V10.0811C70.1445 8.74512 69.3467 7.92871 68.0664 7.92871C66.7676 7.92871 65.9883 8.74512 65.9883 10.0811V27.04C65.9883 30.083 64.5039 31.7344 61.7764 31.7344C59.7539 31.7344 58.3252 30.584 57.75 28.5059C57.416 27.2812 56.7852 26.7432 55.7275 26.7432C54.54 26.7432 53.7793 27.5225 53.7793 28.7842C53.7793 29.5264 53.9277 30.0645 54.1689 30.7324C55.2637 33.6455 58.1582 35.4453 61.8135 35.4453Z" fill="#ffffff"/>
<path d="M82.66 35.3711C88.245 35.3711 91.9188 31.5303 91.9188 25.2402C91.9188 18.9688 88.2264 15.1279 82.66 15.1279C77.0936 15.1279 73.4013 18.9688 73.4013 25.2402C73.4013 31.5303 77.0751 35.3711 82.66 35.3711ZM82.66 32.0684C79.5243 32.0684 77.4833 29.582 77.4833 25.2402C77.4833 20.917 79.5243 18.4307 82.66 18.4307C85.7958 18.4307 87.8368 20.917 87.8368 25.2402C87.8368 29.582 85.8143 32.0684 82.66 32.0684Z" fill="#ffffff"/>
<path d="M96.697 35.3525C97.866 35.3525 98.6824 34.6104 98.6824 33.3486V31.6787H98.7566C99.9627 33.9424 102.189 35.334 105.028 35.334C110.001 35.334 113.192 31.4375 113.192 25.2402C113.192 19.0615 109.982 15.165 105.065 15.165C102.301 15.165 100.055 16.5381 98.8865 18.8018H98.7937V9.98828C98.7937 8.6709 97.9588 7.87305 96.7898 7.87305C95.6209 7.87305 94.7859 8.6709 94.7859 9.98828V33.3486C94.7859 34.6104 95.5466 35.3525 96.697 35.3525ZM103.952 31.9385C100.928 31.9385 98.7752 29.3037 98.7752 25.2402C98.7752 21.2139 100.928 18.542 103.952 18.542C107.106 18.542 109.073 21.1396 109.073 25.2402C109.073 29.3779 107.125 31.9385 103.952 31.9385Z" fill="#ffffff"/>
<path d="M117.933 41.9209C119.102 41.9209 119.937 41.1045 119.937 39.7871V31.79H120.03C121.143 33.9609 123.37 35.334 126.172 35.334C131.07 35.334 134.317 31.4189 134.317 25.2402C134.317 19.0615 131.051 15.165 126.097 15.165C123.277 15.165 121.032 16.5938 119.881 18.8389H119.807V17.1875C119.807 15.9072 118.991 15.1279 117.859 15.1279C116.727 15.1279 115.929 15.9072 115.929 17.1875V39.7871C115.929 41.1045 116.746 41.9209 117.933 41.9209ZM125.04 31.9385C121.96 31.9385 119.919 29.3037 119.919 25.2402C119.919 21.2139 121.978 18.542 125.04 18.542C128.213 18.542 130.198 21.1582 130.198 25.2402C130.198 29.3408 128.213 31.9385 125.04 31.9385Z" fill="#ffffff"/>
<path d="M145.422 35.3711C151.007 35.3711 154.681 31.5303 154.681 25.2402C154.681 18.9688 150.989 15.1279 145.422 15.1279C139.856 15.1279 136.164 18.9688 136.164 25.2402C136.164 31.5303 139.837 35.3711 145.422 35.3711ZM145.422 32.0684C142.287 32.0684 140.246 29.582 140.246 25.2402C140.246 20.917 142.287 18.4307 145.422 18.4307C148.558 18.4307 150.599 20.917 150.599 25.2402C150.599 29.582 148.577 32.0684 145.422 32.0684Z" fill="#ffffff"/>
<path d="M159.478 35.2041C160.832 35.2041 161.909 34.1279 161.909 32.7734C161.909 31.4189 160.832 30.3428 159.478 30.3428C158.123 30.3428 157.047 31.4189 157.047 32.7734C157.047 34.1279 158.123 35.2041 159.478 35.2041Z" fill="#ffffff"/>
<path d="M173.274 35.3711C178.098 35.3711 181.345 32.959 181.345 29.3408C181.345 26.4463 179.768 24.9805 175.667 24.0342L172.643 23.3291C170.583 22.8467 169.637 21.9932 169.637 20.7686C169.637 19.2471 171.121 18.1895 173.274 18.1895C175.241 18.1895 176.428 18.9688 177.3 20.4531C177.69 21.084 178.265 21.3066 178.914 21.3066C179.916 21.3066 180.473 20.7129 180.473 19.8223C180.473 19.6367 180.436 19.4512 180.399 19.2285C179.842 16.9277 176.948 15.1279 173.422 15.1279C168.783 15.1279 165.722 17.4658 165.722 20.9912C165.722 23.7744 167.577 25.6299 171.363 26.5205L174.443 27.2441C176.539 27.7451 177.3 28.4316 177.3 29.7119C177.3 31.3262 175.76 32.3096 173.478 32.3096C171.158 32.3096 169.99 31.6045 168.988 30.0273C168.487 29.2852 167.911 28.9697 167.243 28.9697C166.241 28.9697 165.518 29.5635 165.518 30.5654C165.518 30.8252 165.555 31.1035 165.685 31.4004C166.613 33.7939 169.433 35.3711 173.274 35.3711Z" fill="#ffffff"/>
<path d="M185.233 30.3242C185.233 33.5527 186.902 35.167 190.187 35.167H190.391C192.358 35.167 193.285 34.5547 193.285 33.3486C193.285 32.4023 192.71 31.9385 191.56 31.8271L191.244 31.8086C189.797 31.6973 189.259 30.9922 189.259 29.4336V18.6533H191.541C192.58 18.6533 193.211 18.0596 193.211 17.0762C193.211 16.0928 192.58 15.4805 191.541 15.4805H189.259V12.5859C189.259 11.3057 188.461 10.4521 187.255 10.4521C186.03 10.4521 185.233 11.3057 185.233 12.5859V15.4805H183.822C182.783 15.4805 182.152 16.0742 182.152 17.0762C182.152 18.0596 182.783 18.6533 183.822 18.6533H185.233V30.3242Z" fill="#ffffff"/>
<path d="M165.703 53.1484C166.195 53.1484 166.539 52.8359 166.539 52.3047V51.6016H166.57C167.078 52.5547 168.016 53.1406 169.211 53.1406C171.305 53.1406 172.648 51.5 172.648 48.8906C172.648 46.2891 171.297 44.6484 169.227 44.6484C168.062 44.6484 167.117 45.2266 166.625 46.1797H166.586V42.4688C166.586 41.9141 166.234 41.5781 165.742 41.5781C165.25 41.5781 164.898 41.9141 164.898 42.4688V52.3047C164.898 52.8359 165.219 53.1484 165.703 53.1484ZM168.758 51.7109C167.484 51.7109 166.578 50.6016 166.578 48.8906C166.578 47.1953 167.484 46.0703 168.758 46.0703C170.086 46.0703 170.914 47.1641 170.914 48.8906C170.914 50.6328 170.094 51.7109 168.758 51.7109Z" fill="#ffffff"/>
<path d="M177.363 53.1562C178.895 53.1562 180.09 52.5391 180.629 51.4609C180.699 51.2969 180.746 51.1406 180.746 51.0078C180.746 50.5859 180.449 50.3203 180.043 50.3203C179.801 50.3203 179.629 50.4062 179.449 50.6172C178.824 51.4688 178.246 51.7891 177.324 51.7891C175.981 51.7891 175.137 50.8516 175.137 49.3516V49.3125H180.106C180.629 49.3125 180.942 49 180.942 48.4531C180.942 46.2109 179.434 44.6328 177.246 44.6328C174.918 44.6328 173.434 46.3203 173.434 48.9297C173.434 51.5859 174.887 53.1562 177.363 53.1562ZM175.145 48.1328C175.231 46.8516 176.074 45.9922 177.238 45.9922C178.41 45.9922 179.215 46.8438 179.254 48.1328H175.145Z" fill="#ffffff"/>
<path d="M182.586 51.0312C182.586 52.3906 183.289 53.0703 184.672 53.0703H184.758C185.586 53.0703 185.977 52.8125 185.977 52.3047C185.977 51.9062 185.735 51.7109 185.25 51.6641L185.118 51.6562C184.508 51.6094 184.282 51.3125 184.282 50.6562V46.1172H185.243C185.68 46.1172 185.946 45.8672 185.946 45.4531C185.946 45.0391 185.68 44.7812 185.243 44.7812H184.282V43.5625C184.282 43.0234 183.946 42.6641 183.438 42.6641C182.922 42.6641 182.586 43.0234 182.586 43.5625V44.7812H181.993C181.555 44.7812 181.289 45.0312 181.289 45.4531C181.289 45.8672 181.555 46.1172 181.993 46.1172H182.586V51.0312Z" fill="#ffffff"/>
<path d="M189.356 53.1406C190.426 53.1406 191.473 52.5625 191.95 51.6484H191.989V52.3438C192.004 52.8438 192.325 53.1484 192.793 53.1484C193.27 53.1484 193.606 52.8281 193.606 52.2969V47.3359C193.606 45.6875 192.333 44.6328 190.34 44.6328C188.864 44.6328 187.622 45.2266 187.192 46.1562C187.09 46.3438 187.043 46.5312 187.043 46.7031C187.043 47.125 187.348 47.4062 187.77 47.4062C188.067 47.4062 188.286 47.2969 188.458 47.0469C188.926 46.2969 189.465 46.0078 190.278 46.0078C191.309 46.0078 191.926 46.5547 191.926 47.4688V48.1016L189.668 48.2344C187.723 48.3438 186.614 49.2266 186.614 50.6641C186.614 52.1406 187.747 53.1406 189.356 53.1406ZM189.817 51.8047C188.918 51.8047 188.317 51.3359 188.317 50.6172C188.317 49.9141 188.887 49.4688 189.895 49.3984L191.926 49.2734V49.9219C191.926 50.9922 190.997 51.8047 189.817 51.8047Z" fill="#ffffff"/>
<path d="M7.67518 45H37.3248C42.4579 45 45 42.4579 45 37.4226V7.5774C45 2.5421 42.4579 0 37.3248 0H7.67518C2.56654 0 0 2.51765 0 7.5774V37.4226C0 42.4823 2.56654 45 7.67518 45ZM7.69919 41.0959C5.25075 41.0959 3.90411 39.7982 3.90411 37.2518V7.74816C3.90411 5.20178 5.25075 3.90411 7.69919 3.90411H37.3008C39.7248 3.90411 41.0959 5.20178 41.0959 7.74816V37.2518C41.0959 39.7982 39.7248 41.0959 37.3008 41.0959H7.69919ZM11.5068 7.60274H17.4658C18.941 7.60274 20.137 8.79869 20.137 10.274V16.2329C20.137 17.7082 18.941 18.9041 17.4658 18.9041H11.5068C10.0316 18.9041 8.83562 17.7082 8.83562 16.2329V10.274C8.83562 8.79869 10.0316 7.60274 11.5068 7.60274ZM10.375 27.3288H34.4439C35.2991 27.3288 35.9589 26.6522 35.9589 25.7751C35.9589 24.9232 35.2991 24.2466 34.4439 24.2466H10.375C9.49537 24.2466 8.83562 24.9232 8.83562 25.7751C8.83562 26.6522 9.49537 27.3288 10.375 27.3288ZM10.3793 35.7534H28.0699C28.9275 35.7534 29.589 35.0768 29.589 34.2249C29.589 33.3478 28.9275 32.6712 28.0699 32.6712H10.3793C9.49718 32.6712 8.83562 33.3478 8.83562 34.2249C8.83562 35.0768 9.49718 35.7534 10.3793 35.7534ZM24.3433 18.9041H34.6537C35.5065 18.9041 36.1644 18.2275 36.1644 17.3755C36.1644 16.4985 35.5065 15.8219 34.6537 15.8219H24.3433C23.4661 15.8219 22.8082 16.4985 22.8082 17.3755C22.8082 18.2275 23.4661 18.9041 24.3433 18.9041ZM24.3433 10.6849H34.6537C35.5065 10.6849 36.1644 10.0084 36.1644 9.15636C36.1644 8.27932 35.5065 7.60274 34.6537 7.60274H24.3433C23.4661 7.60274 22.8082 8.27932 22.8082 9.15636C22.8082 10.0084 23.4661 10.6849 24.3433 10.6849Z" fill="#ffffff"/>
</svg>
