<svg width="76" height="100" viewBox="0 0 76 100" fill="none" xmlns="http://www.w3.org/2000/svg">
<path d="M68.58 24.4444V85.7778H75.58V24.4444H68.58ZM62.3543 92.5H13.7257V99.5H62.3543V92.5ZM7.5 85.7778V24.4444H0.5V85.7778H7.5ZM13.7257 17.7222H23.4514V10.7222H13.7257V17.7222ZM52.6286 17.7222H62.3543V10.7222H52.6286V17.7222ZM13.7257 92.5C10.4495 92.5 7.5 89.6566 7.5 85.7778H0.5C0.5 93.1901 6.25918 99.5 13.7257 99.5V92.5ZM68.58 85.7778C68.58 89.6566 65.6305 92.5 62.3543 92.5V99.5C69.8208 99.5 75.58 93.1901 75.58 85.7778H68.58ZM75.58 24.4444C75.58 17.0321 69.8208 10.7222 62.3543 10.7222V17.7222C65.6305 17.7222 68.58 20.5656 68.58 24.4444H75.58ZM7.5 24.4444C7.5 20.5656 10.4495 17.7222 13.7257 17.7222V10.7222C6.25918 10.7222 0.5 17.0321 0.5 24.4444H7.5ZM33.1771 7.5H42.9029V0.5H33.1771V7.5ZM42.9029 20.9444H33.1771V27.9444H42.9029V20.9444ZM33.1771 20.9444C29.9009 20.9444 26.9514 18.1011 26.9514 14.2222H19.9514C19.9514 21.6345 25.7106 27.9444 33.1771 27.9444V20.9444ZM49.1286 14.2222C49.1286 18.1011 46.1791 20.9444 42.9029 20.9444V27.9444C50.3694 27.9444 56.1286 21.6345 56.1286 14.2222H49.1286ZM42.9029 7.5C46.1791 7.5 49.1286 10.3434 49.1286 14.2222H56.1286C56.1286 6.80991 50.3694 0.5 42.9029 0.5V7.5ZM33.1771 0.5C25.7106 0.5 19.9514 6.80991 19.9514 14.2222H26.9514C26.9514 10.3434 29.9009 7.5 33.1771 7.5V0.5Z" fill="white"/>
<path d="M25.834 78.2C28.1888 78.2 29.6017 76.7749 29.6017 74.2875V53.2219H29.8372L46.2166 75.9458C47.4202 77.6041 48.4668 78.2 50.1676 78.2C52.6533 78.2 54.04 76.8267 54.04 74.3911V43.7385C54.04 41.2251 52.6533 39.8 50.2722 39.8C47.8912 39.8 46.4783 41.2251 46.4783 43.7385V64.6745H46.269L29.9419 42.0802C28.7383 40.4478 27.6394 39.8 26.0171 39.8C23.5053 39.8 22.04 41.2251 22.04 43.7126V74.2875C22.04 76.7749 23.4529 78.2 25.834 78.2Z" fill="white"/>
</svg>
