<svg width="592" height="509" viewBox="0 0 592 509" fill="none" xmlns="http://www.w3.org/2000/svg">
<g clip-path="url(#clip0_17_19)">
<path d="M403.676 44.6954H569.378C581.717 44.6954 592 34.9918 592 22.3477C592 9.99759 581.717 0.293945 569.378 0.293945H403.676C391.337 0.293945 381.642 9.99759 381.642 22.3477C381.642 34.9918 391.337 44.6954 403.676 44.6954ZM403.676 198.777H569.378C581.717 198.777 592 189.074 592 176.43C592 164.08 581.717 154.376 569.378 154.376H403.676C391.337 154.376 381.642 164.08 381.642 176.43C381.642 189.074 391.337 198.777 403.676 198.777ZM22.0347 352.86H569.378C581.717 352.86 592 342.862 592 330.512C592 318.162 581.717 308.458 569.378 308.458H22.0347C9.69529 308.458 0 318.162 0 330.512C0 342.862 9.69529 352.86 22.0347 352.86ZM22.0347 506.648H569.378C581.717 506.648 592 496.944 592 484.594C592 472.244 581.717 462.246 569.378 462.246H22.0347C9.69529 462.246 0 472.244 0 484.594C0 496.944 9.69529 506.648 22.0347 506.648Z" fill="#0E0202" fill-opacity="0.94"/>
<path d="M569.378 506.648H22.0347C9.69529 506.648 0 496.944 0 484.594C0 472.244 9.69529 462.246 22.0347 462.246H569.378C581.717 462.246 592 472.244 592 484.594C592 496.944 581.717 506.648 569.378 506.648Z" fill="#0E0202" fill-opacity="0.94"/>
<path d="M569.378 506.648H22.0347C9.69529 506.648 0 496.944 0 484.594C0 472.244 9.69529 462.246 22.0347 462.246H569.378C581.717 462.246 592 472.244 592 484.594C592 496.944 581.717 506.648 569.378 506.648Z" fill="#0E0202" fill-opacity="0.94"/>
<path d="M312.539 83.5811C320.046 83.5811 326.052 87.7256 326.052 92.7911V147.706C326.052 152.772 320.046 157.031 312.539 157.031C304.866 157.031 299.194 152.772 299.194 147.706V92.7911C299.194 87.7256 304.866 83.5811 312.539 83.5811Z" fill="#FA3F3F"/>
<path d="M256.488 25.5578C263.995 25.5578 269.834 29.7023 269.834 34.7679V205.73C269.834 210.795 263.995 215.055 256.488 215.055C248.648 215.055 242.976 210.795 242.976 205.73V34.7679C242.976 29.7023 248.648 25.5578 256.488 25.5578Z" fill="#FA3F3F"/>
<path d="M200.271 60.4409C207.944 60.4409 213.783 64.4703 213.783 69.651V170.846C213.783 176.027 207.944 180.172 200.271 180.172C192.597 180.172 186.925 176.027 186.925 170.846V69.651C186.925 64.4703 192.597 60.4409 200.271 60.4409Z" fill="#FA3F3F"/>
<path d="M144.053 -3.05176e-05C151.727 -3.05176e-05 157.732 4.1445 157.732 9.32515V231.172C157.732 236.353 151.727 240.498 144.053 240.498C136.546 240.498 130.874 236.353 130.874 231.172V9.32515C130.874 4.1445 136.546 -3.05176e-05 144.053 -3.05176e-05Z" fill="#FA3F3F"/>
<path d="M88.0022 46.3952C95.6758 46.3952 101.514 50.5397 101.514 55.7204V184.776C101.514 189.957 95.6758 194.217 88.0022 194.217C80.4954 194.217 74.6567 189.957 74.6567 184.776V55.7204C74.6567 50.5397 80.4954 46.3952 88.0022 46.3952Z" fill="#FA3F3F"/>
<path d="M31.7843 93.482C39.6248 93.482 45.4634 97.6266 45.4634 102.807V137.69C45.4634 142.871 39.6248 147.131 31.7843 147.131C24.2775 147.131 18.6057 142.871 18.6057 137.69V102.807C18.6057 97.6266 24.2775 93.482 31.7843 93.482Z" fill="#FA3F3F"/>
</g>
<defs>
<clipPath id="clip0_17_19">
<rect width="592" height="509" fill="white"/>
</clipPath>
</defs>
</svg>
