<svg xmlns="http://www.w3.org/2000/svg" viewBox="0 0 500 95"><style type="text/css">  
	.st0{fill:#fff;}
</style><path class="st0" d="M76.5 7.4v38.1H6.6V7.4H76.5M82.9 1H0.3v50.8h82.6V1L82.9 1z"/><rect x="13" y="64.6" class="st0" width="57.2" height="3.2"/><rect x="13" y="77.3" class="st0" width="57.2" height="3.2"/><rect x="13" y="90" class="st0" width="57.2" height="3.2"/><path class="st0" d="M124.2 80.7c0.6 1 1.3 1.8 2.2 2.4 0.9 0.6 1.9 1.1 3 1.4 1.1 0.3 2.3 0.4 3.6 0.4 0.9 0 1.8-0.1 2.8-0.3 1-0.2 1.8-0.5 2.6-1 0.8-0.4 1.5-1 2-1.8 0.5-0.7 0.8-1.7 0.8-2.8 0-1.9-1.2-3.3-3.7-4.2 -2.5-0.9-6-1.9-10.4-2.8 -1.8-0.4-3.6-0.9-5.3-1.5 -1.7-0.6-3.3-1.3-4.6-2.2 -1.4-0.9-2.4-2.1-3.3-3.4 -0.8-1.4-1.2-3.1-1.2-5.1 0-2.9 0.6-5.3 1.7-7.2 1.1-1.9 2.7-3.4 4.5-4.4 1.9-1.1 4-1.8 6.3-2.3 2.3-0.4 4.8-0.7 7.2-0.7 2.5 0 4.9 0.2 7.2 0.7 2.3 0.5 4.4 1.3 6.2 2.4 1.8 1.1 3.3 2.6 4.5 4.4 1.2 1.8 1.9 4.2 2.2 7h-11.9c-0.2-2.4-1.1-4-2.7-4.9 -1.6-0.9-3.6-1.3-5.8-1.3 -0.7 0-1.5 0-2.3 0.1 -0.8 0.1-1.6 0.3-2.2 0.6 -0.7 0.3-1.2 0.7-1.7 1.3 -0.5 0.6-0.7 1.3-0.7 2.2 0 1.1 0.4 2 1.2 2.7 0.8 0.7 1.9 1.3 3.2 1.7 1.3 0.4 2.8 0.8 4.5 1.2 1.7 0.4 3.4 0.7 5.2 1.1 1.8 0.4 3.6 0.9 5.3 1.5 1.7 0.6 3.3 1.4 4.6 2.3 1.3 1 2.4 2.2 3.3 3.6 0.8 1.4 1.2 3.2 1.2 5.3 0 3-0.6 5.5-1.8 7.5 -1.2 2-2.8 3.7-4.7 4.9 -1.9 1.2-4.2 2.1-6.6 2.6 -2.5 0.5-5 0.7-7.6 0.7 -2.6 0-5.2-0.3-7.7-0.8 -2.5-0.5-4.8-1.4-6.7-2.6 -2-1.2-3.6-2.9-4.8-4.9 -1.3-2-2-4.6-2.1-7.6h11.9C123.3 78.6 123.6 79.8 124.2 80.7z"/><path class="st0" d="M173.8 29.2V92h-12.5V29.2H173.8z"/><path class="st0" d="M184 39.5V29.2h12.5v10.3H184zM196.5 46.5V92H184V46.5H196.5z"/><path class="st0" d="M238.7 86.2c-1.5 2.5-3.4 4.2-5.8 5.3 -2.4 1.1-5.1 1.6-8.1 1.6 -3.4 0-6.4-0.7-9-2 -2.6-1.3-4.7-3.1-6.4-5.4 -1.7-2.3-2.9-4.9-3.8-7.8 -0.9-2.9-1.3-6-1.3-9.2 0-3.1 0.4-6 1.3-8.8 0.9-2.8 2.1-5.4 3.8-7.5 1.7-2.2 3.8-3.9 6.3-5.2s5.5-2 8.8-2c2.7 0 5.3 0.6 7.7 1.7 2.4 1.1 4.4 2.8 5.8 5.1h0.2V29.2h12.5V92h-11.9v-5.8H238.7zM238.1 63.7c-0.4-1.7-1-3.3-1.8-4.6 -0.9-1.3-2-2.4-3.3-3.2 -1.3-0.8-3.1-1.2-5.1-1.2s-3.8 0.4-5.2 1.2c-1.4 0.8-2.5 1.9-3.4 3.3 -0.9 1.4-1.5 2.9-1.8 4.6 -0.4 1.7-0.6 3.5-0.6 5.4 0 1.8 0.2 3.5 0.6 5.3 0.4 1.8 1.1 3.3 2 4.7 0.9 1.4 2.1 2.5 3.4 3.3 1.4 0.9 3 1.3 5 1.3 2.1 0 3.8-0.4 5.1-1.2 1.4-0.8 2.5-1.9 3.3-3.3 0.8-1.4 1.4-2.9 1.8-4.7 0.4-1.8 0.5-3.6 0.5-5.5C238.7 67.3 238.5 65.5 238.1 63.7z"/><path class="st0" d="M273.5 81.1c1.9 1.8 4.6 2.7 8.1 2.7 2.5 0 4.7-0.6 6.5-1.9 1.8-1.3 2.9-2.6 3.3-4h11c-1.8 5.5-4.5 9.4-8.1 11.7 -3.6 2.3-8 3.5-13.2 3.5 -3.6 0-6.8-0.6-9.7-1.7 -2.9-1.1-5.3-2.8-7.3-4.9 -2-2.1-3.5-4.6-4.6-7.6 -1.1-2.9-1.6-6.2-1.6-9.7 0-3.4 0.6-6.6 1.7-9.5 1.1-2.9 2.7-5.5 4.8-7.6 2.1-2.1 4.5-3.8 7.3-5.1 2.8-1.2 6-1.8 9.5-1.8 3.9 0 7.2 0.7 10.1 2.2 2.9 1.5 5.2 3.5 7.1 6 1.8 2.5 3.2 5.4 4 8.6 0.8 3.2 1.1 6.6 0.9 10.1h-32.8C270.6 76.4 271.6 79.3 273.5 81.1zM287.6 57.2c-1.5-1.6-3.8-2.5-6.8-2.5 -2 0-3.7 0.3-5 1 -1.3 0.7-2.4 1.5-3.2 2.5 -0.8 1-1.3 2.1-1.7 3.2 -0.3 1.1-0.5 2.1-0.6 3h20.3C290.2 61.2 289.1 58.8 287.6 57.2z"/><path class="st0" d="M332.4 54.7c-2 0-3.7 0.5-5 1.4 -1.3 0.9-2.5 2.1-3.3 3.5 -0.9 1.4-1.5 3-1.8 4.8 -0.4 1.7-0.5 3.4-0.5 5.1 0 1.6 0.2 3.3 0.5 5 0.4 1.7 0.9 3.2 1.7 4.6 0.8 1.4 1.9 2.5 3.2 3.4 1.3 0.9 3 1.3 4.9 1.3 3 0 5.3-0.8 6.9-2.5 1.6-1.7 2.6-3.9 3-6.7h12.1c-0.8 6-3.2 10.6-7 13.8 -3.9 3.2-8.8 4.8-14.9 4.8 -3.4 0-6.5-0.6-9.4-1.7 -2.8-1.1-5.3-2.7-7.3-4.8 -2-2.1-3.6-4.5-4.7-7.3 -1.1-2.8-1.7-6-1.7-9.4 0-3.5 0.5-6.8 1.5-9.8 1-3 2.5-5.6 4.5-7.8 2-2.2 4.4-3.9 7.3-5.1 2.9-1.2 6.2-1.8 9.9-1.8 2.7 0 5.3 0.4 7.8 1.1 2.5 0.7 4.7 1.8 6.7 3.2 2 1.4 3.6 3.2 4.8 5.4 1.2 2.1 1.9 4.7 2.1 7.6h-12.2C340.8 57.3 337.7 54.7 332.4 54.7z"/><path class="st0" d="M373.1 46.5V55h0.2c0.6-1.4 1.4-2.7 2.4-3.9 1-1.2 2.1-2.2 3.4-3.1 1.3-0.9 2.7-1.5 4.1-2 1.5-0.5 3-0.7 4.6-0.7 0.8 0 1.7 0.1 2.7 0.4v11.6c-0.6-0.1-1.3-0.2-2.1-0.3 -0.8-0.1-1.6-0.1-2.4-0.1 -2.3 0-4.2 0.4-5.8 1.1 -1.6 0.8-2.9 1.8-3.8 3.1 -1 1.3-1.7 2.9-2.1 4.6 -0.4 1.8-0.6 3.7-0.6 5.7V92h-12.5V46.5H373.1z"/><path class="st0" d="M394.9 60.5c0.2-2.9 0.9-5.4 2.2-7.3 1.3-1.9 2.9-3.5 4.9-4.7 2-1.2 4.2-2 6.7-2.5 2.5-0.5 5-0.7 7.5-0.7 2.3 0 4.6 0.2 7 0.5 2.3 0.3 4.5 1 6.4 1.9 1.9 0.9 3.5 2.2 4.8 3.9 1.2 1.7 1.8 3.9 1.8 6.6v23.7c0 2.1 0.1 4 0.4 5.9 0.2 1.9 0.6 3.3 1.2 4.2h-12.7c-0.2-0.7-0.4-1.4-0.6-2.2 -0.1-0.7-0.2-1.5-0.3-2.2 -2 2.1-4.3 3.5-7 4.3 -2.7 0.8-5.5 1.2-8.3 1.2 -2.2 0-4.2-0.3-6.1-0.8 -1.9-0.5-3.5-1.3-4.9-2.5 -1.4-1.1-2.5-2.5-3.3-4.2 -0.8-1.7-1.2-3.7-1.2-6.1 0-2.6 0.5-4.7 1.4-6.4 0.9-1.7 2.1-3 3.5-4 1.4-1 3.1-1.7 4.9-2.2 1.8-0.5 3.7-0.9 5.6-1.2 1.9-0.3 3.7-0.5 5.5-0.7 1.8-0.2 3.4-0.4 4.8-0.8 1.4-0.4 2.5-0.9 3.3-1.5 0.8-0.7 1.2-1.7 1.1-2.9 0-1.3-0.2-2.4-0.7-3.2 -0.4-0.8-1-1.4-1.8-1.8 -0.7-0.4-1.6-0.7-2.6-0.9 -1-0.1-2-0.2-3.1-0.2 -2.5 0-4.4 0.5-5.8 1.6 -1.4 1.1-2.2 2.8-2.5 5.3H394.9zM423.8 69.8c-0.5 0.5-1.2 0.8-2 1.1 -0.8 0.3-1.6 0.5-2.6 0.7 -0.9 0.2-1.9 0.3-2.9 0.4s-2 0.3-3 0.4c-0.9 0.2-1.9 0.4-2.8 0.7 -0.9 0.3-1.7 0.7-2.4 1.2 -0.7 0.5-1.2 1.1-1.6 1.9 -0.4 0.8-0.6 1.7-0.6 2.9 0 1.1 0.2 2.1 0.6 2.8 0.4 0.8 1 1.4 1.7 1.8 0.7 0.4 1.5 0.7 2.5 0.9 0.9 0.2 1.9 0.3 2.9 0.3 2.5 0 4.4-0.4 5.7-1.2 1.3-0.8 2.3-1.8 3-2.9 0.6-1.1 1-2.3 1.2-3.5 0.1-1.2 0.2-2.1 0.2-2.8V69.8z"/><path class="st0" d="M441.2 54.9v-8.4h7.5V43c0-4 1.3-7.4 3.8-9.9 2.5-2.6 6.3-3.9 11.4-3.9 1.1 0 2.2 0 3.3 0.1 1.1 0.1 2.2 0.2 3.3 0.2v9.3c-1.5-0.2-3-0.3-4.6-0.3 -1.7 0-2.9 0.4-3.7 1.2 -0.7 0.8-1.1 2.1-1.1 4v2.7h8.6v8.4h-8.6V92h-12.5V54.9H441.2z"/><path class="st0" d="M500.3 46.5v8.4h-9.2v22.5c0 2.1 0.4 3.5 1.1 4.2 0.7 0.7 2.1 1.1 4.2 1.1 0.7 0 1.4 0 2-0.1 0.6-0.1 1.3-0.1 1.8-0.3V92c-1.1 0.2-2.2 0.3-3.5 0.4 -1.3 0.1-2.6 0.1-3.8 0.1 -1.9 0-3.8-0.1-5.5-0.4 -1.7-0.3-3.3-0.8-4.6-1.5 -1.3-0.8-2.4-1.8-3.1-3.3 -0.8-1.4-1.1-3.3-1.1-5.5V54.9H471v-8.4h7.6V32.9h12.5v13.6H500.3z"/></svg>