<svg xmlns="http://www.w3.org/2000/svg" viewBox="0 0 1077.49 295.55">
<defs>
<style>.snipLogo-1{fill:#fff;}</style></defs>
<g id="Layer_2" data-name="Layer 2">
<g id="Layer_1-2" data-name="Layer 1">
    <path class="snipLogo-1" d="M368.5,6.28a6.28,6.28,0,1,0-12.55,0,37.72,37.72,0,1,1-75.44,0,6.28,6.28,0,1,0-12.56,0,50.33,50.33,0,0,0,50.28,50.27h.22a140,140,0,0,1-1.63,88.05A153.3,153.3,0,0,0,218.24,72l2.39-27.39a6.27,6.27,0,1,0-12.5-1.1l-2.3,26.21a150.19,150.19,0,0,0-43,.09l-2.3-26.3a6.28,6.28,0,0,0-12.51,1.1l2.41,27.59a153.27,153.27,0,0,0-97.84,72.37A140.13,140.13,0,0,1,51,56.51,50.3,50.3,0,0,0,100.55,6.28,6.28,6.28,0,1,0,88,6.28a37.73,37.73,0,0,1-75.45,0A6.28,6.28,0,1,0,0,6.28,50.32,50.32,0,0,0,38.33,55.06,152.58,152.58,0,0,0,45,159.48a150.91,150.91,0,0,0-12.9,61.33,152.6,152.6,0,0,0,17.73,71.41A6.28,6.28,0,0,0,61,286.32a140.06,140.06,0,0,1-8.33-112,152.16,152.16,0,0,0,15.72,22.26,120.37,120.37,0,0,0-2.5,24.19,117.61,117.61,0,0,0,24.51,72.28,6.28,6.28,0,1,0,10-7.65,105.22,105.22,0,0,1-21.91-64.63,109.3,109.3,0,0,1,.75-12.66,152.3,152.3,0,0,0,211.16,0,106.84,106.84,0,0,1,.76,12.65,105.36,105.36,0,0,1-21.9,64.64,6.28,6.28,0,0,0,10,7.64,117.83,117.83,0,0,0,24.48-72.28,119.66,119.66,0,0,0-2.51-24.19,151.47,151.47,0,0,0,15.73-22.26,140,140,0,0,1-8.34,112,6.28,6.28,0,0,0,11.09,5.9,152.57,152.57,0,0,0,17.73-71.41,150.75,150.75,0,0,0-12.91-61.33,152.49,152.49,0,0,0,6.65-104.65A50.31,50.31,0,0,0,368.5,6.28ZM184.74,238.14A139.94,139.94,0,0,1,58.91,159.48a139.93,139.93,0,0,1,251.63,0,140,140,0,0,1-125.8,78.66Z"/><path class="snipLogo-1" d="M409.17,177.22q-3.21-2.85-.54-6.24l2.14-2.67q2.49-3,6.24-.54a42.68,42.68,0,0,0,13.63,8,43.9,43.9,0,0,0,15.23,2.85q11.4,0,18.44-5.88a19.2,19.2,0,0,0,7-15.5,18.49,18.49,0,0,0-4.63-12.92,43.39,43.39,0,0,0-11.59-8.82,145,145,0,0,0-15-6.94,92.5,92.5,0,0,1-15-7.58,42.23,42.23,0,0,1-11.58-10.6q-4.64-6.24-4.63-16a31.63,31.63,0,0,1,2.85-13.46A30.67,30.67,0,0,1,420,70.31a38.62,38.62,0,0,1,12.47-7,48.07,48.07,0,0,1,15.77-2.49,59.14,59.14,0,0,1,16.3,2.76,45.66,45.66,0,0,1,14.16,7q3.21,2.49,1.07,5.88l-1.6,2.85c-1.55,2.49-3.62,2.91-6.24,1.25q-12.12-8-24.05-8a35.81,35.81,0,0,0-10.69,1.51,24.73,24.73,0,0,0-8.29,4.37,20,20,0,0,0-5.34,6.68,19,19,0,0,0-1.87,8.46,17,17,0,0,0,4.63,12.3,43.22,43.22,0,0,0,11.58,8.37q7,3.57,15,6.77a93.73,93.73,0,0,1,15,7.58,40.6,40.6,0,0,1,11.58,10.86Q484,146,484,156a34.59,34.59,0,0,1-2.76,14,31.27,31.27,0,0,1-7.84,10.87,36.13,36.13,0,0,1-12.12,7,45.91,45.91,0,0,1-15.41,2.49,63.18,63.18,0,0,1-19.6-3.65A53,53,0,0,1,409.17,177.22Z"/><path class="snipLogo-1" d="M509.83,67.46q0-4.45,4.28-4.45h4.28a6.77,6.77,0,0,1,5.34,2.85l62,87.3q2.31,3.57,5.34,8.56t5,8.37h.36q-.36-3.21-.72-8.2c-.24-3.32-.35-6.23-.35-8.73V67.46q0-4.45,4.45-4.45h3.56q4.27,0,4.28,4.45V183.81q0,4.45-4.28,4.45H599.1a5.49,5.49,0,0,1-5.17-2.85l-62.18-87.3a97.49,97.49,0,0,1-5.44-8.38q-2.94-5-4.89-8.55h-.36q.35,3.39.71,8.37t.36,8.56v85.7q0,4.45-4.28,4.45h-3.74q-4.28,0-4.28-4.45Z"/><path class="snipLogo-1" d="M642.57,67.46q0-4.45,4.28-4.45h3.74q4.27,0,4.27,4.45V183.81q0,4.45-4.27,4.45h-3.74q-4.27,0-4.28-4.45Z"/><path class="snipLogo-1" d="M689.79,67.46q0-4.45,4.27-4.45h39a43.08,43.08,0,0,1,15.68,2.76,34.56,34.56,0,0,1,20.13,19.69,40,40,0,0,1,2.86,15.32,41.18,41.18,0,0,1-2.86,15.59A36.19,36.19,0,0,1,761,128.49a34.93,34.93,0,0,1-12.21,7.84,43.08,43.08,0,0,1-15.68,2.76h-31v44.72q0,4.45-4.28,4.45h-3.74q-4.27,0-4.27-4.45ZM731.48,128q12.82,0,20.22-7.22t7.4-20q0-12.3-7.31-19.51t-20.13-7.22H702.08v54Z"/><path class="snipLogo-1" d="M791.88,69.24q0-7.47,7.3-7.48h34.21a104.05,104.05,0,0,1,14.7.8,38,38,0,0,1,9.36,2.59,34,34,0,0,1,15.41,12.91q5.79,8.82,5.79,21.65a42.77,42.77,0,0,1-1.43,11.05,39.56,39.56,0,0,1-4.09,9.89,34.77,34.77,0,0,1-6.6,8.1,28.68,28.68,0,0,1-8.91,5.53v.35l1.07,1.61c.36.59.8,1.27,1.34,2a24.21,24.21,0,0,1,1.69,2.94l20.85,38.13q2.31,3.91.8,6.41t-6,2.49h-9.62a9.34,9.34,0,0,1-8.73-5.16l-22.27-42h-22.1v39.73q0,7.49-7.3,7.48h-8.2q-7.3,0-7.3-7.48Zm43.47,51.85q9.27,0,14.61-5.37t5.35-14.85a22.43,22.43,0,0,0-2.41-10.65,14.51,14.51,0,0,0-7.57-6.71,21.6,21.6,0,0,0-5.43-1.61,50.65,50.65,0,0,0-8.29-.54H814.68v39.73Z"/><path class="snipLogo-1" d="M899,177.57a10.24,10.24,0,0,1-2.94-4.36c-.54-1.61.09-3.59,1.87-6l3.92-5.7c1.42-2,2.94-3.12,4.54-3.3s3.54.39,5.79,1.69l4,2.68a36.24,36.24,0,0,0,5.7,3,52.49,52.49,0,0,0,7.31,2.49,33.52,33.52,0,0,0,8.64,1.07q8.91,0,13.9-4a13.47,13.47,0,0,0,.62-20.4,47.31,47.31,0,0,0-11-7.13q-6.58-3.21-14.16-6.41A83.41,83.41,0,0,1,913,123.59a40.08,40.08,0,0,1-10.95-11q-4.38-6.5-4.37-16.3A34.13,34.13,0,0,1,901,81.18a35,35,0,0,1,9-11.58,40.43,40.43,0,0,1,13.46-7.39,53,53,0,0,1,16.84-2.59,56.16,56.16,0,0,1,10.6,1A71.07,71.07,0,0,1,960.16,63a55.64,55.64,0,0,1,7.48,3.12,42.58,42.58,0,0,1,5.26,3.11q5.7,4.11,2.32,10.16L972,85.28q-2,3.91-4.63,3.92a12.2,12.2,0,0,1-5.53-1.43,89.45,89.45,0,0,0-9.17-4.63,31.59,31.59,0,0,0-12.74-2.32q-8.91,0-14.08,3.93a12.94,12.94,0,0,0-.8,20,45,45,0,0,0,11,6.86q6.59,3,14.16,6.15a79,79,0,0,1,14.17,7.57,39.86,39.86,0,0,1,11,11q4.35,6.6,4.36,16.58a37.52,37.52,0,0,1-2.85,14.52,34.45,34.45,0,0,1-8.2,11.93,38.57,38.57,0,0,1-13.09,8,49.78,49.78,0,0,1-17.73,2.94A58.91,58.91,0,0,1,925,189.06a73.24,73.24,0,0,1-11.05-3.29,65,65,0,0,1-8.82-4.19A57.37,57.37,0,0,1,899,177.57Z"/><path class="snipLogo-1" d="M996.78,177.57a10.36,10.36,0,0,1-2.95-4.36c-.53-1.61.09-3.59,1.88-6l3.91-5.7q2.14-3,4.55-3.3c1.6-.18,3.53.39,5.79,1.69l4,2.68a35.8,35.8,0,0,0,5.7,3,52,52,0,0,0,7.31,2.49,33.52,33.52,0,0,0,8.64,1.07c5.93,0,10.57-1.34,13.89-4a13.48,13.48,0,0,0,.63-20.4,47.52,47.52,0,0,0-11-7.13q-6.6-3.21-14.16-6.41a82.66,82.66,0,0,1-14.17-7.66,40.11,40.11,0,0,1-11-11q-4.36-6.5-4.36-16.3a34.26,34.26,0,0,1,3.29-15.15,35.17,35.17,0,0,1,9-11.58,40.38,40.38,0,0,1,13.45-7.39,53,53,0,0,1,16.84-2.59,56.08,56.08,0,0,1,10.6,1A70.82,70.82,0,0,1,1058,63a55.64,55.64,0,0,1,7.48,3.12,42.58,42.58,0,0,1,5.26,3.11q5.7,4.11,2.31,10.16l-3.2,5.88c-1.31,2.61-2.85,3.92-4.64,3.92a12.2,12.2,0,0,1-5.52-1.43,88.67,88.67,0,0,0-9.18-4.63,31.56,31.56,0,0,0-12.74-2.32q-8.91,0-14.07,3.93a12.94,12.94,0,0,0-.8,20,45.16,45.16,0,0,0,10.95,6.86q6.6,3,14.17,6.15a78.61,78.61,0,0,1,14.16,7.57,39.59,39.59,0,0,1,11,11q4.37,6.6,4.37,16.58a37.52,37.52,0,0,1-2.85,14.52,34.59,34.59,0,0,1-8.2,11.93,38.52,38.52,0,0,1-13.1,8,49.69,49.69,0,0,1-17.72,2.94,58.78,58.78,0,0,1-12.83-1.34,72.89,72.89,0,0,1-11-3.29,63.86,63.86,0,0,1-8.82-4.19A57.37,57.37,0,0,1,996.78,177.57Z"/></g></g></svg>