<?xml version="1.0" encoding="utf-8"?>
<!-- Generator: Adobe Illustrator 16.0.0, SVG Export Plug-In . SVG Version: 6.00 Build 0)  -->
<!DOCTYPE svg PUBLIC "-//W3C//DTD SVG 1.1//EN" "http://www.w3.org/Graphics/SVG/1.1/DTD/svg11.dtd">
<svg version="1.1" id="Layer_1" xmlns="http://www.w3.org/2000/svg" xmlns:xlink="http://www.w3.org/1999/xlink" x="0px" y="0px"
	  viewBox="0 0 3000 3000" enable-background="new 0 0 3000 3000" xml:space="preserve">
<g id="grid">
</g>
<g>
	<path fill="#00053E" d="M1500,1151.101l106.889,772.417l348.898-584.857l-149.24,643.344l377.133-361l-195.624,475.955
		l314.614-233.944c-145.206,397.3-274.278,621.161-802.669,800.652l0,0l0,0c-528.39-181.508-655.446-403.353-802.668-800.652
		l314.613,233.944l-195.625-475.955l377.133,361l-149.239-643.344l348.898,584.857L1500,1151.101L1500,1151.101z"/>
	<g>
		<path fill="#00053E" d="M945.393,892.957c-159.323,0-256.128-86.72-256.128-229.91V316.165h133.106v338.814
			c0,84.704,44.369,129.073,125.039,129.073c82.687,0,125.04-44.369,125.04-127.057V314.147h133.106v342.849
			C1205.555,802.202,1106.733,892.957,945.393,892.957"/>
		<path fill="#00053E" d="M1447.565,544.059h48.401c64.538,0,100.837-24.201,100.837-68.57c0-42.353-30.251-64.537-94.786-64.537
			h-54.452V544.059z M1447.565,788.085h56.47c52.435,0,112.937-14.117,112.937-76.637c0-64.536-62.519-78.653-114.954-78.653
			h-54.452V788.085z M1504.035,882.873h-185.542V318.182h187.558c137.141,0,213.777,54.452,213.777,149.239
			c0,50.419-26.219,90.755-76.637,114.956c68.568,24.201,102.854,68.57,102.854,133.105
			C1746.045,822.371,1659.324,882.873,1504.035,882.873"/>
		<path fill="#00053E" d="M2117.128,892.957c-183.524,0-300.496-114.955-300.496-292.43c0-175.457,123.021-292.429,304.529-292.429
			c68.57,0,125.038,14.117,173.441,40.335l4.034,2.018l-20.169,114.954l-8.066-6.05c-48.401-32.269-94.787-48.401-145.206-48.401
			c-108.905,0-173.441,70.586-173.441,187.557c0,114.956,66.554,187.56,175.458,187.56c50.418,0,100.838-16.135,155.29-46.386
			l8.066-6.051l18.151,106.888l-4.033,2.017C2252.25,874.806,2185.698,892.957,2117.128,892.957"/>
	</g>
	<path fill="#00053E" d="M501.706,138.69v1476.265c0,621.161,336.799,1068.881,998.294,1246.354
		c661.497-175.457,998.294-625.193,998.294-1246.354V138.69H501.706z M1500,2784.673
		c-625.194-177.475-923.673-588.893-923.673-1177.784V215.327h1845.33v1391.562C2421.657,2193.764,2123.179,2607.198,1500,2784.673z
		"/>
	<path fill="#00053E" d="M1500,1082.531c139.157,0,157.309,56.47,270.245,56.47c110.922,0,131.09-56.47,270.247-56.47
		c139.155,0,159.323,56.47,270.243,56.47v-129.072c-110.92,0-131.088-54.452-270.243-54.452
		c-139.157,0-159.325,56.469-270.247,54.452c-112.937,0-131.088-54.452-270.245-54.452c-139.155,0-157.307,56.469-270.245,54.452
		c-110.921,0-131.089-54.452-270.246-54.452c-139.156,0-159.323,56.469-270.245,54.452V1139c110.922,0,131.089-56.47,270.245-56.47
		c139.157,0,159.324,56.47,270.246,56.47S1360.845,1082.531,1500,1082.531z"/>
	<g>
		<path fill="#00053E" d="M1586.722,1316.476c66.552,16.134,98.82,46.385,181.508,46.385c110.922,0,131.09-56.468,270.245-56.468
			s159.324,56.468,270.245,56.468v-129.072c-110.921,0-131.09-54.452-270.245-54.452s-159.323,56.469-270.245,54.452
			c-90.755,0-118.988-34.285-199.659-48.402L1586.722,1316.476z"/>
		<path fill="#00053E" d="M1229.755,1362.86c82.687,0,114.955-30.251,181.508-46.385l18.152-133.106
			c-80.671,14.117-110.922,50.418-199.66,48.402c-110.921,0-131.089-54.454-270.245-54.454c-139.157,0-159.324,56.47-270.246,54.454
			v129.072c110.922,0,131.089-56.469,270.246-56.469C1098.667,1306.392,1116.816,1362.86,1229.755,1362.86z"/>
	</g>
	<g>
		<path fill="#00053E" d="M1618.99,1550.419c38.318,12.101,66.552,28.234,112.937,34.284l78.654-129.072
			c-12.101,2.018-26.218,2.018-40.336,2.018c-76.637,0-110.921-26.219-167.391-42.352L1618.99,1550.419z"/>
		<path fill="#00053E" d="M1975.955,1536.302c18.151-2.018,38.318-4.033,62.52-4.033c139.155,0,159.324,56.47,270.245,56.47
			v-129.073c-110.921,0-131.09-54.453-270.245-54.453c-12.1,0-22.185,0-32.268,2.017L1975.955,1536.302z"/>
		<path fill="#00053E" d="M1022.03,1536.302l-30.252-133.105c-10.083,0-20.167-2.018-32.267-2.018
			c-139.157,0-159.324,56.47-270.246,54.452v129.072c110.922,0,131.089-56.468,270.246-56.468
			C983.712,1532.269,1003.878,1534.284,1022.03,1536.302z"/>
		<path fill="#00053E" d="M1266.057,1586.721c44.369-6.05,74.62-22.184,112.938-34.284l18.151-135.124
			c-58.486,16.135-90.755,42.353-167.391,42.353c-14.117,0-28.234,0-40.336-2.017L1266.057,1586.721z"/>
	</g>
</g>
</svg>
