<svg width="41" height="57" viewBox="0 0 41 57" fill="none" xmlns="http://www.w3.org/2000/svg">
<path d="M20.0534 56.6031C22.2308 56.6031 23.6018 55.1111 23.6018 52.7724L23.5615 32.1676L38.6825 7.28856C39.8115 5.3934 40.0937 4.74824 40.0937 3.82082C40.0937 1.84501 38.8034 0.554688 36.8276 0.554688C35.255 0.554688 34.2873 1.32082 32.9567 3.6192L20.2147 25.474H19.9325L7.23085 3.6192C5.9002 1.32082 4.93246 0.554688 3.35988 0.554688C1.38407 0.554688 0.09375 1.84501 0.09375 3.82082C0.09375 4.78856 0.376008 5.3934 1.46472 7.24824L16.5857 32.1676L16.5454 52.7724C16.5454 55.1111 17.876 56.6031 20.0534 56.6031Z" fill="black"/>
</svg>
